<svg width="1024" height="1024" viewBox="0 0 36 36" fill="none" xmlns="http://www.w3.org/2000/svg">
  <defs>
    <linearGradient id="g" x1="6" y1="6" x2="30" y2="30" gradientUnits="userSpaceOnUse">
      <stop stop-color="#7C5CFF"/><stop offset="1" stop-color="#10BFAE"/>
    </linearGradient>
    <clipPath id="cp"><rect x="0" y="17.936" width="32" height="14.064"/></clipPath>
    
  </defs>
  <g transform="translate(2 1.3)" >
    <path d="M6 16.4a10 10 0 0 1 20 0V27l-3.33-3.1L19.33 27 16 23.9 12.67 27 9.33 23.9 6 27Z" stroke="url(#g)" stroke-width="2.6" stroke-linejoin="round"/>
    <g clip-path="url(#cp)"><path d="M6 16.4a10 10 0 0 1 20 0V27l-3.33-3.1L19.33 27 16 23.9 12.67 27 9.33 23.9 6 27Z" fill="url(#g)"/></g>
    <circle cx="12.4" cy="14.6" r="2.35" fill="url(#g)"/>
    <circle cx="19.6" cy="14.6" r="2.35" fill="url(#g)"/>
  </g>
</svg>